<svg xmlns="http://www.w3.org/2000/svg" width="128" height="128" viewBox="0 0 128 128" role="img" aria-label="Git Simple Compare">
  <defs>
    <linearGradient id="bg" x1="18" y1="14" x2="110" y2="118" gradientUnits="userSpaceOnUse">
      <stop offset="0" stop-color="#15384a"/>
      <stop offset="0.52" stop-color="#132c37"/>
      <stop offset="1" stop-color="#172227"/>
    </linearGradient>
    <linearGradient id="left" x1="30" y1="24" x2="80" y2="106" gradientUnits="userSpaceOnUse">
      <stop offset="0" stop-color="#58a6ff"/>
      <stop offset="1" stop-color="#2f81f7"/>
    </linearGradient>
    <linearGradient id="right" x1="48" y1="16" x2="104" y2="104" gradientUnits="userSpaceOnUse">
      <stop offset="0" stop-color="#7ee787"/>
      <stop offset="1" stop-color="#2ea043"/>
    </linearGradient>
    <filter id="shadow" x="-20%" y="-20%" width="140%" height="140%" color-interpolation-filters="sRGB">
      <feDropShadow dx="0" dy="8" stdDeviation="8" flood-color="#000000" flood-opacity="0.28"/>
    </filter>
  </defs>
  <rect width="128" height="128" rx="28" fill="url(#bg)"/>
  <g filter="url(#shadow)">
    <path d="M35 36h22c12 0 19 7 24 17l10 21" fill="none" stroke="url(#left)" stroke-width="9" stroke-linecap="round"/>
    <path d="M35 92h22c12 0 19-7 24-17l10-21" fill="none" stroke="url(#right)" stroke-width="9" stroke-linecap="round"/>
    <circle cx="35" cy="36" r="11" fill="#0d1117" stroke="#58a6ff" stroke-width="6"/>
    <circle cx="35" cy="92" r="11" fill="#0d1117" stroke="#7ee787" stroke-width="6"/>
    <circle cx="93" cy="64" r="13" fill="#0d1117" stroke="#f0f6fc" stroke-width="6"/>
  </g>
  <path d="M49 62h27" fill="none" stroke="#f0f6fc" stroke-width="6" stroke-linecap="round"/>
  <path d="M67 51l11 11-11 11" fill="none" stroke="#f0f6fc" stroke-width="6" stroke-linecap="round" stroke-linejoin="round"/>
  <path d="M82 43l11-11 11 11" fill="none" stroke="#7ee787" stroke-width="5" stroke-linecap="round" stroke-linejoin="round"/>
  <path d="M93 32v19" fill="none" stroke="#7ee787" stroke-width="5" stroke-linecap="round"/>
</svg>
