<svg xmlns="http://www.w3.org/2000/svg" width="128" height="128" viewBox="0 0 128 128" role="img" aria-label="Git Simple Compare">
  <defs>
    <linearGradient id="bg" x1="16" y1="10" x2="112" y2="118" gradientUnits="userSpaceOnUse">
      <stop offset="0" stop-color="#183242"/>
      <stop offset="0.52" stop-color="#111c24"/>
      <stop offset="1" stop-color="#0d1117"/>
    </linearGradient>
    <radialGradient id="topGlow" cx="0" cy="0" r="1" gradientUnits="userSpaceOnUse" gradientTransform="translate(39 22) rotate(51) scale(94 76)">
      <stop offset="0" stop-color="#2dd4bf" stop-opacity="0.2"/>
      <stop offset="0.6" stop-color="#2dd4bf" stop-opacity="0.04"/>
      <stop offset="1" stop-color="#2dd4bf" stop-opacity="0"/>
    </radialGradient>
    <linearGradient id="gitMark" x1="37" y1="12" x2="91" y2="94" gradientUnits="userSpaceOnUse">
      <stop offset="0" stop-color="#ff9a57"/>
      <stop offset="0.45" stop-color="#f97316"/>
      <stop offset="1" stop-color="#e34c26"/>
    </linearGradient>
    <linearGradient id="diffPanel" x1="52" y1="74" x2="108" y2="109" gradientUnits="userSpaceOnUse">
      <stop offset="0" stop-color="#151f2a"/>
      <stop offset="1" stop-color="#0d1117"/>
    </linearGradient>
    <filter id="markShadow" x="-28%" y="-28%" width="156%" height="156%" color-interpolation-filters="sRGB">
      <feDropShadow dx="0" dy="8" stdDeviation="8" flood-color="#000000" flood-opacity="0.34"/>
    </filter>
    <filter id="panelShadow" x="-30%" y="-30%" width="160%" height="170%" color-interpolation-filters="sRGB">
      <feDropShadow dx="0" dy="7" stdDeviation="6" flood-color="#000000" flood-opacity="0.36"/>
    </filter>
  </defs>
  <rect width="128" height="128" rx="28" fill="url(#bg)"/>
  <rect width="128" height="128" rx="28" fill="url(#topGlow)"/>
  <rect x="4" y="4" width="120" height="120" rx="26" fill="none" stroke="#ffffff" stroke-opacity="0.07" stroke-width="2"/>
  <g filter="url(#markShadow)">
    <rect x="32" y="17" width="64" height="64" rx="14" fill="url(#gitMark)" transform="rotate(45 64 49)"/>
    <path d="M47 41l17 17 17-17" fill="none" stroke="#fff7ed" stroke-width="7" stroke-linecap="round" stroke-linejoin="round"/>
    <path d="M64 58l16 16" fill="none" stroke="#fff7ed" stroke-width="7" stroke-linecap="round"/>
    <circle cx="47" cy="41" r="7.5" fill="#e34c26" stroke="#fff7ed" stroke-width="5"/>
    <circle cx="64" cy="58" r="7.5" fill="#e34c26" stroke="#fff7ed" stroke-width="5"/>
    <circle cx="81" cy="41" r="7.5" fill="#e34c26" stroke="#fff7ed" stroke-width="5"/>
    <circle cx="80" cy="74" r="7.5" fill="#e34c26" stroke="#fff7ed" stroke-width="5"/>
  </g>
  <g filter="url(#panelShadow)">
    <rect x="52" y="80" width="58" height="32" rx="9" fill="url(#diffPanel)" stroke="#30363d" stroke-width="2"/>
    <path d="M81 85v22" fill="none" stroke="#30363d" stroke-width="2"/>
    <path d="M61 90h12" fill="none" stroke="#58a6ff" stroke-width="4" stroke-linecap="round"/>
    <path d="M61 101h15" fill="none" stroke="#58a6ff" stroke-width="4" stroke-linecap="round"/>
    <path d="M87 90h13" fill="none" stroke="#7ee787" stroke-width="4" stroke-linecap="round"/>
    <path d="M87 101h10" fill="none" stroke="#7ee787" stroke-width="4" stroke-linecap="round"/>
    <path d="M81 93h4" fill="none" stroke="#f0f6fc" stroke-width="3" stroke-linecap="round"/>
    <path d="M83 91v4" fill="none" stroke="#f0f6fc" stroke-width="3" stroke-linecap="round"/>
  </g>
</svg>
